<svg xmlns="http://www.w3.org/2000/svg" xmlns:xlink="http://www.w3.org/1999/xlink" width="211.722" height="168.497" viewBox="0 0 211.722 168.497">
  <defs>
    <linearGradient id="linear-gradient" x1="0.748" y1="0.66" x2="0.025" y2="0.023" gradientUnits="objectBoundingBox">
      <stop offset="0" stop-color="#00325a"/>
      <stop offset="1" stop-color="#4076a1"/>
    </linearGradient>
  </defs>
  <path id="Icon_awesome-address-card" data-name="Icon awesome-address-card" d="M194.079,2.25H17.644A17.857,17.857,0,0,0,0,20.3v132.39a17.857,17.857,0,0,0,17.644,18.053H194.079a17.857,17.857,0,0,0,17.644-18.053V20.3A17.857,17.857,0,0,0,194.079,2.25ZM64.693,38.356c12.975,0,23.525,10.794,23.525,24.071S77.668,86.5,64.693,86.5,41.168,75.7,41.168,62.427,51.718,38.356,64.693,38.356Zm41.168,89.063c0,3.987-3.676,7.221-8.234,7.221H31.758c-4.558,0-8.234-3.235-8.234-7.221V120.2c0-11.96,11.064-21.664,24.7-21.664h1.838a37.069,37.069,0,0,0,29.259,0H81.16c13.637,0,24.7,9.7,24.7,21.664ZM188.2,107.561a2.984,2.984,0,0,1-2.941,3.009H132.327a2.984,2.984,0,0,1-2.941-3.009v-6.018a2.984,2.984,0,0,1,2.941-3.009h52.931a2.984,2.984,0,0,1,2.941,3.009Zm0-24.071a2.984,2.984,0,0,1-2.941,3.009H132.327a2.984,2.984,0,0,1-2.941-3.009V77.472a2.984,2.984,0,0,1,2.941-3.009h52.931a2.984,2.984,0,0,1,2.941,3.009Zm0-24.071a2.984,2.984,0,0,1-2.941,3.009H132.327a2.984,2.984,0,0,1-2.941-3.009V53.4a2.984,2.984,0,0,1,2.941-3.009h52.931A2.984,2.984,0,0,1,188.2,53.4Z" transform="translate(0 -2.25)" fill="url(#linear-gradient)"/>
</svg>
