<svg xmlns="http://www.w3.org/2000/svg" width="29.463" height="23.02" viewBox="0 0 29.463 23.02">
  <path id="Icon_awesome-exchange-alt" data-name="Icon awesome-exchange-alt" d="M0,10.382V9.461A1.381,1.381,0,0,1,1.381,8.08H22.1V5.318a1.382,1.382,0,0,1,2.358-.977l4.6,4.6a1.381,1.381,0,0,1,0,1.953l-4.6,4.6a1.382,1.382,0,0,1-2.358-.977V11.763H1.381A1.381,1.381,0,0,1,0,10.382Zm28.082,8.747H7.366V16.367a1.382,1.382,0,0,0-2.358-.977l-4.6,4.6a1.381,1.381,0,0,0,0,1.953l4.6,4.6a1.382,1.382,0,0,0,2.358-.977V22.812H28.082a1.381,1.381,0,0,0,1.381-1.381V20.51A1.381,1.381,0,0,0,28.082,19.129Z" transform="translate(0 -3.936)" fill="#00325a"/>
</svg>
