<svg xmlns="http://www.w3.org/2000/svg" width="202.712" height="193.802" viewBox="0 0 202.712 193.802">
  <g id="Group_25" data-name="Group 25" transform="translate(-545)">
    <path id="Polygon_1" data-name="Polygon 1" d="M112.183,14.583a18.674,18.674,0,0,1,28.523,9.254l.051.153A18.674,18.674,0,0,0,158.223,36.7l.127,0a18.674,18.674,0,0,1,17.606,24.2l-.115.371a18.674,18.674,0,0,0,6.639,20.468l.294.22a18.674,18.674,0,0,1,0,29.886l-.294.22a18.674,18.674,0,0,0-6.639,20.468l.115.371a18.674,18.674,0,0,1-17.606,24.2l-.127,0a18.674,18.674,0,0,0-17.465,12.711l-.051.153a18.674,18.674,0,0,1-28.523,9.254h0a18.674,18.674,0,0,0-21.653,0h0a18.674,18.674,0,0,1-28.523-9.254l-.051-.153A18.674,18.674,0,0,0,44.489,157.1l-.127,0a18.674,18.674,0,0,1-17.606-24.2l.115-.371a18.674,18.674,0,0,0-6.639-20.468l-.294-.22a18.674,18.674,0,0,1,0-29.886l.294-.22A18.674,18.674,0,0,0,26.87,61.27l-.115-.371A18.674,18.674,0,0,1,44.362,36.7l.127,0A18.674,18.674,0,0,0,61.955,23.99l.051-.153a18.674,18.674,0,0,1,28.523-9.254h0a18.674,18.674,0,0,0,21.653,0Z" transform="translate(545)" fill="#2eac00"/>
    <g id="Polygon_2" data-name="Polygon 2" transform="translate(562.821 16.707)" fill="#2eac00">
      <path d="M 101.3561935424805 149.1912536621094 C 98.58475494384766 149.1914215087891 95.91154479980469 148.3281555175781 93.62557220458984 146.6947479248047 C 90.66413116455078 144.5787353515625 87.1749267578125 143.4602661132812 83.53519439697266 143.4602661132812 C 79.89544677734375 143.4602661132812 76.40625762939453 144.5787353515625 73.44483947753906 146.6947784423828 C 71.15927886962891 148.3278198242188 68.4859619140625 149.1910858154297 65.71396636962891 149.1912384033203 C 62.99225616455078 149.1913757324219 60.26169586181641 148.3354949951172 58.02529907226562 146.7813110351562 C 55.67192459106445 145.1458129882812 53.94010925292969 142.8269195556641 53.01708984375 140.0752868652344 L 52.94136047363281 139.8495483398438 C 50.59746551513672 132.8622894287109 44.07146453857422 128.1061706542969 36.70221710205078 128.0144195556641 L 36.51500701904297 128.0120849609375 C 32.26344299316406 127.9591674804688 28.38923645019531 125.9577941894531 25.88569450378418 122.521125793457 C 23.38217353820801 119.0844573974609 22.66506958007812 114.7831878662109 23.91823577880859 110.7202072143555 L 24.0867977142334 110.1737747192383 C 26.23636054992676 103.2046051025391 23.76536178588867 95.57571411132812 17.93802833557129 91.19027709960938 L 17.50669479370117 90.86566925048828 C 14.12259006500244 88.31890106201172 12.18171501159668 84.42913055419922 12.18171501159668 80.19377136230469 C 12.18171501159668 75.95839691162109 14.1226110458374 72.06864929199219 17.50673675537109 69.52188110351562 L 17.93802833557129 69.19731140136719 C 23.76536178588867 64.81185913085938 26.23636054992676 57.1829833984375 24.08681869506836 50.21381378173828 L 23.91827774047852 49.66737747192383 C 22.66509056091309 45.60437774658203 23.38219451904297 41.30312728881836 25.88571548461914 37.86646270751953 C 28.38925743103027 34.42979431152344 32.26348495483398 32.42842102050781 36.5150260925293 32.37550354003906 L 36.70227813720703 32.3731689453125 C 44.07148742675781 32.28141784667969 50.59748458862305 27.52529335021973 52.94136047363281 20.53816986083984 L 53.01713180541992 20.31229400634766 C 53.94004821777344 17.56100273132324 55.67192459106445 15.24223136901855 58.02548599243164 13.60662746429443 C 60.26206970214844 12.05233573913574 62.99259185791016 11.19635677337646 65.714111328125 11.19635677337646 C 68.48586273193359 11.19635677337646 71.15913391113281 12.05962753295898 73.44488525390625 13.69285678863525 C 76.40631866455078 15.80887794494629 79.89553070068359 16.92733573913574 83.53525543212891 16.92733573913574 C 87.17501068115234 16.92733573913574 90.66421508789062 15.80885696411133 93.62565612792969 13.69281482696533 L 93.62557220458984 13.69289875030518 C 95.91131591796875 12.05966949462891 98.58457183837891 11.19639873504639 101.356315612793 11.19639873504639 C 104.0781555175781 11.19639873504639 106.8087387084961 12.05229377746582 109.0451126098633 13.60646057128906 C 111.3984832763672 15.24191951751709 113.1302947998047 17.5607738494873 114.0533218383789 20.31235694885254 L 114.1290664672852 20.53812789916992 C 116.4729461669922 27.52531433105469 122.9989471435547 32.28144073486328 130.3681793212891 32.37319183349609 L 130.5553894042969 32.37552261352539 C 134.8069305419922 32.42844009399414 138.68115234375 34.42981338500977 141.1846771240234 37.86648178100586 C 143.6882171630859 41.30315017700195 144.4053344726562 45.60441970825195 143.1521453857422 49.66739654541016 L 142.9836273193359 50.21379470825195 C 140.8340454101562 57.18296051025391 143.3050231933594 64.81185913085938 149.1323547363281 69.19733428955078 L 149.5637359619141 69.52195739746094 C 152.9477996826172 72.06868743896484 154.8886871337891 75.95844268798828 154.8886871337891 80.19381713867188 C 154.8886871337891 84.42916870117188 152.9477996826172 88.31891632080078 149.5636749267578 90.86570739746094 L 149.1324310302734 91.19023132324219 C 143.3050537109375 95.57572937011719 140.8340454101562 103.2046279907227 142.9836273193359 110.1737976074219 L 143.1521759033203 110.7202301025391 C 144.4053344726562 114.7831878662109 143.6882171630859 119.0844573974609 141.1846771240234 122.521125793457 C 138.68115234375 125.9577941894531 134.8069305419922 127.9591674804688 130.5554046630859 128.0120849609375 L 130.3681488037109 128.0144195556641 C 122.9989471435547 128.1061706542969 116.4729461669922 132.8622894287109 114.1290664672852 139.8494262695312 L 114.0532989501953 140.0752868652344 C 113.1304016113281 142.8265075683594 111.398551940918 145.1452331542969 109.0449676513672 146.7808074951172 C 106.8084259033203 148.3350372314453 104.0778427124023 149.1910858154297 101.3561935424805 149.1912536621094 Z" stroke="none"/>
      <path d="M 65.71433258056641 13.19633483886719 L 65.71435546875 13.19633483886719 C 63.39680480957031 13.19647216796875 61.07151031494141 13.92552185058594 59.16680908203125 15.24913024902344 C 57.16917419433594 16.63734436035156 55.69833374023438 18.60809326171875 54.913330078125 20.94818115234375 L 54.83750915527344 21.17425537109375 C 52.2235107421875 28.96653747558594 44.94551086425781 34.27070617675781 36.72735595703125 34.37297821044922 L 36.5399169921875 34.37532043457031 C 32.92501831054688 34.42034149169922 29.63092041015625 36.12202453613281 27.50225830078125 39.04409027099609 C 25.37362670898438 41.96613311767578 24.76390075683594 45.62331390380859 25.82939147949219 49.07786560058594 L 25.99797058105469 49.62433624267578 C 28.39518737792969 57.39659118652344 25.63945007324219 65.90456390380859 19.140625 70.79534149169922 L 18.70933532714844 71.11991119384766 C 15.83197021484375 73.28533935546875 14.18171691894531 76.59263610839844 14.18171691894531 80.19377136230469 C 14.18171691894531 83.79492950439453 15.83197021484375 87.10222625732422 18.70930480957031 89.26763153076172 L 19.14065551757812 89.59222412109375 C 25.63946533203125 94.48302459716797 28.39521789550781 102.9909973144531 25.9979248046875 110.7632751464844 L 25.82939147949219 111.3096771240234 C 24.76387023925781 114.7642517089844 25.37359619140625 118.4214324951172 27.50224304199219 121.3434753417969 C 29.63087463378906 124.2655487060547 32.92498779296875 125.9672241210938 36.54010009765625 126.0122528076172 L 36.72709655761719 126.0145874023438 C 44.94548797607422 126.1168670654297 52.22348785400391 131.4210510253906 54.83753204345703 139.2135162353516 L 54.91323852539062 139.439208984375 C 55.69840240478516 141.7798156738281 57.16919708251953 143.7507019042969 59.1666259765625 145.1388244628906 C 61.07112884521484 146.4623413085938 63.39637756347656 147.1912231445312 65.71405792236328 147.1912231445312 C 68.06642150878906 147.1912231445312 70.33760070800781 146.4568328857422 72.28208160400391 145.0675048828125 C 75.58473968505859 142.7076416015625 79.47601318359375 141.4602661132812 83.53519439697266 141.4602661132812 C 87.59435272216797 141.4602661132812 91.48560333251953 142.7076110839844 94.78828430175781 145.0674743652344 C 96.7327880859375 146.4568634033203 99.00396728515625 147.1912536621094 101.3563079833984 147.1912536621094 C 103.6736755371094 147.1912536621094 105.9988708496094 146.4622650146484 107.9035797119141 145.1386108398438 C 109.9012145996094 143.7503662109375 111.3720855712891 141.779541015625 112.1571502685547 139.4392700195312 L 112.2329254150391 139.2133636474609 C 114.8468780517578 131.4210510253906 122.1248779296875 126.1168670654297 130.3430633544922 126.0145874023438 L 130.5304870605469 126.0122528076172 C 134.1454010009766 125.9672241210938 137.4395141601562 124.2655487060547 139.5681457519531 121.3434753417969 C 141.69677734375 118.4214324951172 142.3065185546875 114.7642517089844 141.2410125732422 111.3097076416016 L 141.0724487304688 110.7632446289062 C 138.6752014160156 102.9910202026367 141.4309234619141 94.48304748535156 147.9297332763672 89.59224700927734 L 148.3610382080078 89.26765441894531 C 151.2384185791016 87.10224914550781 152.888671875 83.79495239257812 152.888671875 80.19379425048828 C 152.888671875 76.59263610839844 151.2384185791016 73.28536224365234 148.3609924316406 71.11991119384766 L 147.9297332763672 70.79536437988281 C 141.4309234619141 65.90456390380859 138.6752014160156 57.39659118652344 141.0724639892578 49.62427520751953 L 141.2409973144531 49.07793426513672 C 142.3065185546875 45.62333679199219 141.69677734375 41.96615600585938 139.5681457519531 39.04411315917969 C 137.4394836425781 36.12204742431641 134.1454010009766 34.42036437988281 130.53076171875 34.3753662109375 L 130.34326171875 34.37302398681641 C 122.1248550415039 34.27072906494141 114.8468780517578 28.96652221679688 112.2329864501953 21.17442321777344 L 112.1571502685547 20.94841003417969 C 111.3719635009766 18.60772705078125 109.9011535644531 16.63679504394531 107.9037170410156 15.2486572265625 C 105.9992370605469 13.92510986328125 103.6740570068359 13.19627380371094 101.3565368652344 13.19638061523438 C 99.00389862060547 13.19650268554688 96.73262786865234 13.930908203125 94.78830718994141 15.32017517089844 L 94.78839874267578 15.32011413574219 C 91.48567199707031 17.67997741699219 87.59442138671875 18.92733764648438 83.53526306152344 18.92733764648438 C 79.47610473632812 18.92733764648438 75.58483123779297 17.67999267578125 72.28215026855469 15.32012939453125 C 70.33742523193359 13.93058776855469 68.06630706787109 13.19619750976562 65.71433258056641 13.19633483886719 M 65.71409606933594 9.19635009765625 C 68.76553344726562 9.1961669921875 71.86763000488281 10.1077880859375 74.60760498046875 12.06556701660156 L 74.60760498046875 12.0655517578125 C 79.94779968261719 15.88125610351562 87.12271118164062 15.88125610351562 92.46292114257812 12.0655517578125 L 92.46282958984375 12.06561279296875 C 100.8600845336914 6.065567016601562 112.6671447753906 9.89154052734375 115.949462890625 19.67625427246094 L 116.0252380371094 19.90208435058594 C 118.1016235351562 26.09188842773438 123.8648071289062 30.29206848144531 130.39306640625 30.37333679199219 L 130.5802917480469 30.37565612792969 C 140.8358459472656 30.50334167480469 148.0862426757812 40.45613861083984 145.0633087158203 50.25688171386719 L 144.8947601318359 50.80329132080078 C 142.9868469238281 56.98899841308594 145.1627807617188 63.70686340332031 150.3349914550781 67.59929656982422 L 150.7662811279297 67.92388153076172 C 158.9294738769531 74.06719970703125 158.9294738769531 86.32038879394531 150.7662811279297 92.46372985839844 L 150.3350067138672 92.78829193115234 C 145.1627807617188 96.68074798583984 142.9868469238281 103.3986129760742 144.8947601318359 109.5842895507812 L 145.0633087158203 110.1307220458984 C 148.0862426757812 119.9314727783203 140.8358459472656 129.8842468261719 130.5802917480469 130.0119323730469 L 130.39306640625 130.0142669677734 C 123.8648071289062 130.0955200195312 118.1016235351562 134.2957000732422 116.0252380371094 140.4855041503906 L 115.949462890625 140.7113800048828 C 112.6671447753906 150.4960632324219 100.8600921630859 154.3220672607422 92.46282958984375 148.3220520019531 C 87.12263488769531 144.50634765625 79.94773864746094 144.50634765625 74.60755920410156 148.3220520019531 L 74.60755920410156 148.322021484375 C 66.21029663085938 154.3220367431641 54.40324401855469 150.4960632324219 51.12091827392578 140.7113647460938 L 51.04517364501953 140.4855194091797 C 48.96876525878906 134.2957305908203 43.20560455322266 130.0955200195312 36.67733764648438 130.0142669677734 L 36.49009704589844 130.0119323730469 C 26.23454284667969 129.8842468261719 18.98414611816406 119.9314727783203 22.007080078125 110.1307220458984 L 22.17562866210938 109.5842895507812 C 24.08354187011719 103.3986129760742 21.90762329101562 96.68072509765625 16.73539733886719 92.78829193115234 L 16.3040771484375 92.46370697021484 C 8.140914916992188 86.32036590576172 8.140914916992188 74.06719970703125 16.3040771484375 67.92385864257812 L 16.73539733886719 67.59927368164062 C 21.90762329101562 63.70684051513672 24.08354187011719 56.98897552490234 22.17564392089844 50.80326843261719 L 22.00711059570312 50.2568359375 C 18.98417663574219 40.45609283447266 26.23457336425781 30.50331115722656 36.49012756347656 30.37564086914062 L 36.67735290527344 30.373291015625 C 43.20562744140625 30.29203796386719 48.96878814697266 26.09185791015625 51.04519653320312 19.90208435058594 L 51.12096405029297 19.67617797851562 C 53.33229827880859 13.08418273925781 59.41373443603516 9.19671630859375 65.71409606933594 9.19635009765625 Z" stroke="none" fill="#fff"/>
    </g>
    <path id="Icon_material-done-all" data-name="Icon material-done-all" d="M64.9,13.538,59.746,8.385l-23.17,23.17,5.153,5.153Zm15.5-5.153L41.729,47.05,26.453,31.811,21.3,36.964,41.729,57.393,85.583,13.538,80.394,8.385ZM.615,36.964,21.044,57.393,26.2,52.24,5.8,31.811Z" transform="translate(603.256 64.012)" fill="#fff"/>
  </g>
</svg>
