<svg xmlns="http://www.w3.org/2000/svg" xmlns:xlink="http://www.w3.org/1999/xlink" width="173.113" height="173.152" viewBox="0 0 173.113 173.152">
  <defs>
    <linearGradient id="linear-gradient" x1="0.676" y1="0.681" x2="0.037" y2="0.082" gradientUnits="objectBoundingBox">
      <stop offset="0" stop-color="#00325a"/>
      <stop offset="1" stop-color="#4076a1"/>
    </linearGradient>
  </defs>
  <path id="Icon_awesome-wpforms" data-name="Icon awesome-wpforms" d="M173.113,18.943V158.709A16.5,16.5,0,0,1,156.42,175.4H16.693A16.559,16.559,0,0,1,0,158.67V18.943A16.5,16.5,0,0,1,16.693,2.25H156.459A16.5,16.5,0,0,1,173.113,18.943ZM158.7,158.67V18.943a2.294,2.294,0,0,0-2.241-2.241h-3.594L110.244,45.528,86.556,26.246,62.908,45.528,20.287,16.663H16.693A2.294,2.294,0,0,0,14.452,18.9V158.67a2.294,2.294,0,0,0,2.241,2.241H156.459a2.243,2.243,0,0,0,2.241-2.241ZM58.039,61.758v14.3h-28.4v-14.3Zm0,28.749V104.92h-28.4V90.507Zm4.289-56.919L83.195,16.7H37.4L62.328,33.588Zm81.147,28.169v14.3H67.738v-14.3Zm0,28.749V104.92H67.738V90.507ZM110.785,33.588,135.708,16.7H89.957Zm32.691,85.745v14.413H105.066V119.333Z" transform="translate(0 -2.25)" fill="url(#linear-gradient)"/>
</svg>
