<svg xmlns="http://www.w3.org/2000/svg" xmlns:xlink="http://www.w3.org/1999/xlink" width="404" height="180" viewBox="0 0 404 180">
  <defs>
    <linearGradient id="linear-gradient" x1="-1.092" y1="0.065" x2="0.5" y2="1" gradientUnits="objectBoundingBox">
      <stop offset="0" stop-color="#fdfdfd"/>
      <stop offset="1" stop-color="#f1f1f1"/>
    </linearGradient>
    <filter id="Rectangle_119" x="0" y="0" width="404" height="180" filterUnits="userSpaceOnUse">
      <feOffset dy="3" input="SourceAlpha"/>
      <feGaussianBlur stdDeviation="5" result="blur"/>
      <feFlood flood-opacity="0.161"/>
      <feComposite operator="in" in2="blur"/>
      <feComposite in="SourceGraphic"/>
    </filter>
  </defs>
  <g id="Group_142" data-name="Group 142" transform="translate(-588.5 -6582.59)">
    <g transform="matrix(1, 0, 0, 1, 588.5, 6582.59)" filter="url(#Rectangle_119)">
      <rect id="Rectangle_119-2" data-name="Rectangle 119" width="374" height="150" rx="4" transform="translate(15 12)" fill="url(#linear-gradient)"/>
    </g>
    <path id="Path_43" data-name="Path 43" d="M106.048,42.344a17.4,17.4,0,0,1-34.8,0,17.4,17.4,0,0,1,34.8,0Zm-7.617,0c0-6.24-4.528-10.51-9.783-10.51s-9.783,4.27-9.783,10.51c0,6.178,4.528,10.51,9.783,10.51S98.432,48.514,98.432,42.344Z" transform="translate(669.258 6629.067)" fill="#ea4335"/>
    <path id="Path_44" data-name="Path 44" d="M154.048,42.344a17.4,17.4,0,0,1-34.8,0,17.4,17.4,0,0,1,34.8,0Zm-7.617,0c0-6.24-4.528-10.51-9.783-10.51s-9.783,4.27-9.783,10.51c0,6.178,4.528,10.51,9.783,10.51S146.432,48.514,146.432,42.344Z" transform="translate(658.793 6629.067)" fill="#fbbc05"/>
    <path id="Path_45" data-name="Path 45" d="M200.48,26.048V57.187c0,12.809-7.554,18.04-16.484,18.04a16.517,16.517,0,0,1-15.374-10.221l6.631-2.76a9.581,9.581,0,0,0,8.735,6.154c5.716,0,9.259-3.527,9.259-10.166V55.74h-.266a11.809,11.809,0,0,1-9.134,3.941c-8.672,0-16.617-7.554-16.617-17.274,0-9.79,7.945-17.407,16.617-17.407a12.019,12.019,0,0,1,9.134,3.879h.266V26.056h7.233Zm-6.694,16.359c0-6.107-4.074-10.572-9.259-10.572-5.255,0-9.658,4.465-9.658,10.572,0,6.045,4.4,10.447,9.658,10.447C189.712,52.854,193.786,48.452,193.786,42.407Z" transform="translate(648.333 6629.067)" fill="#4285f4"/>
    <path id="Path_46" data-name="Path 46" d="M222.929,3V53.829H215.5V3Z" transform="translate(637.809 6633.863)" fill="#34a853"/>
    <path id="Path_47" data-name="Path 47" d="M254.841,48.051l5.912,3.941A17.264,17.264,0,0,1,246.3,59.679,16.97,16.97,0,0,1,229.09,42.334c0-10.314,7.421-17.344,16.359-17.344,9,0,13.4,7.163,14.842,11.034l.79,1.971L237.9,47.6a8.827,8.827,0,0,0,8.406,5.255,9.9,9.9,0,0,0,8.539-4.8Zm-18.2-6.24,15.5-6.436c-.852-2.166-3.417-3.675-6.436-3.675A9.514,9.514,0,0,0,236.644,41.81Z" transform="translate(634.846 6629.069)" fill="#ea4335"/>
    <path id="Path_48" data-name="Path 48" d="M27.675,32.484V25.126h24.8a24.382,24.382,0,0,1,.368,4.442c0,5.521-1.509,12.348-6.373,17.211-4.731,4.927-10.776,7.554-18.783,7.554C12.84,54.333.36,42.244.36,27.4S12.84.47,27.683.47A25.662,25.662,0,0,1,46.137,7.891l-5.192,5.192a18.757,18.757,0,0,0-13.27-5.255A19.319,19.319,0,0,0,8.36,27.4,19.319,19.319,0,0,0,27.675,46.975c7.03,0,11.034-2.823,13.6-5.388,2.08-2.08,3.449-5.052,3.988-9.11Z" transform="translate(684.713 6634.415)" fill="#4285f4"/>
  </g>
</svg>
