
<svg xmlns="http://www.w3.org/2000/svg" xmlns:xlink="http://www.w3.org/1999/xlink" width="244.948" height="91.209" viewBox="0 0 244.948 91.209">
  <defs>
    <linearGradient id="linear-gradient" y1="0.5" x2="1" y2="0.5" gradientUnits="objectBoundingBox">
      <stop offset="0" stop-color="#2484c7"/>
      <stop offset="1" stop-color="#201a56"/>
    </linearGradient>
  </defs>
  <g id="Layer_2" data-name="Layer 2" transform="translate(0.096 0.015)">
    <g id="Layer_1" data-name="Layer 1" transform="translate(-0.096 -0.015)">
      <path id="Path_88" data-name="Path 88" d="M60.7,13.08H10.34V15.7H60.66Z" transform="translate(-6.635 -8.431)" fill="#e87325"/>
      <path id="Path_89" data-name="Path 89" d="M598.409,13.08H548.05V15.7h50.32Q598.392,14.39,598.409,13.08Z" transform="translate(-353.461 -8.431)" fill="#e87325"/>
      <path id="Path_90" data-name="Path 90" d="M175.833,12.415H166.5a4.572,4.572,0,0,1-3.351-1.25,3.948,3.948,0,0,1-1.25-2.879V4.119a3.944,3.944,0,0,1,1.239-2.9A4.615,4.615,0,0,1,166.5-.01h10.245l-.912,2.723h-8.467a2.237,2.237,0,0,0-1.495.522,1.729,1.729,0,0,0-.568,1.356V7.736a1.708,1.708,0,0,0,.579,1.349,2.272,2.272,0,0,0,1.484.511h9.379Z" transform="translate(-104.392 0.015)" fill="#14345a"/>
      <path id="Path_91" data-name="Path 91" d="M222.169,10.579,221.1,12.407H217.27L224.7,0h3.756l7.423,12.425h-3.923L230.888,10.6Zm7.355-2.29-3-5.066-2.989,5.066Z" transform="translate(-140.106 0.005)" fill="#14345a"/>
      <path id="Path_92" data-name="Path 92" d="M295.9-.007a4.416,4.416,0,0,1,3.273,1.25,4.076,4.076,0,0,1,1.257,2.978,4.2,4.2,0,0,1-1.257,3.028A4.427,4.427,0,0,1,295.9,8.527h-7.334v3.891H285.17V-.007Zm-7.334,5.779h6.919a1.562,1.562,0,0,0,1.161-.454,1.5,1.5,0,0,0,.444-1.065,1.445,1.445,0,0,0-.444-1.065,1.491,1.491,0,0,0-1.129-.444h-6.951Z" transform="translate(-183.902 0.013)" fill="#14345a"/>
      <path id="Path_93" data-name="Path 93" d="M349.25,0V12.425h-3.38V0Z" transform="translate(-223.054 0.005)" fill="#14345a"/>
      <path id="Path_94" data-name="Path 94" d="M379.458,12.425V2.694H373.38L374.31,0h14.91L388.3,2.694h-5.456v9.73Z" transform="translate(-240.798 0.005)" fill="#14345a"/>
      <path id="Path_95" data-name="Path 95" d="M436.449,10.579l-1.065,1.828H431.55L438.973,0h3.742l7.455,12.425h-3.94L445.164,10.6Zm7.352-2.29-3-5.066-2.989,5.066Z" transform="translate(-278.318 0.005)" fill="#14345a"/>
      <path id="Path_96" data-name="Path 96" d="M512.918,9.606l-.955,2.819H499.45V0h3.39V9.606Z" transform="translate(-322.114 0.005)" fill="#14345a"/>
      <path id="Path_97" data-name="Path 97" d="M95.155,127.23a8.566,8.566,0,0,1,3.195,3.12,8.4,8.4,0,0,1,1.171,4.359,8.594,8.594,0,0,1-4.37,7.533,9.106,9.106,0,0,1-8.875,0,8.594,8.594,0,0,1-4.377-7.533,8.4,8.4,0,0,1,1.171-4.359,8.58,8.58,0,0,1,3.195-3.12,9.258,9.258,0,0,1,8.9,0Z" transform="translate(-52.791 -81.324)" fill="#e87325"/>
      <path id="Path_98" data-name="Path 98" d="M53.038,81.9A15.229,15.229,0,1,1,48.6,71.113,15.222,15.222,0,0,1,53.038,81.9Zm-3.972.025A10.966,10.966,0,0,0,45.8,73.9a10.792,10.792,0,0,0-7.984-3.3,11.362,11.362,0,1,0,11.25,11.331Zm37.2,15.243H83.323V79.578A9.7,9.7,0,0,0,80.43,72.51a9.485,9.485,0,0,0-7.008-2.932,9.9,9.9,0,0,0-9.965,10v17.59H60.511V66.639h2.946V71.41a12.808,12.808,0,0,1,19.074-.976A12.549,12.549,0,0,1,86.28,79.6Zm33.433,0h-2.946V79.578a9.7,9.7,0,0,0-2.893-7.068,9.493,9.493,0,0,0-7.022-2.932,9.9,9.9,0,0,0-9.965,10v17.59H93.93V66.639h2.946V71.41a12.809,12.809,0,0,1,19.074-.976A12.538,12.538,0,0,1,119.7,79.6Zm37.53-13.77H129.8a11.793,11.793,0,0,0,4.019,7.746,11.974,11.974,0,0,0,8.2,3.078q6.912,0,10.984-6.745l2.574,1.495q-4.931,8.2-13.557,8.2A15.242,15.242,0,1,1,157.24,81.957Zm-3.053-2.943a11.931,11.931,0,0,0-4.019-7.75,11.807,11.807,0,0,0-8.144-3.124,11.974,11.974,0,0,0-8.165,3.1,11.814,11.814,0,0,0-4.043,7.781ZM220.745,97.3H217.8V91.027A14.414,14.414,0,0,1,205.53,97.3a14.626,14.626,0,0,1-10.8-4.455A14.814,14.814,0,0,1,190.311,82,15.2,15.2,0,0,1,205.53,66.756,14.366,14.366,0,0,1,217.8,73.078V66.756h2.946ZM217.8,82.031a12.272,12.272,0,1,0-7.55,11.421,12.269,12.269,0,0,0,7.55-11.421ZM67.171,100.015l-15.364,1.118,3.167,1.935-.085.1A27.161,27.161,0,1,1,54.7,61.062a5.4,5.4,0,1,0,7.515-7.455A37.707,37.707,0,1,0,61.207,111.6l.98,3.358ZM244.078,66.394c-.17,0-.355-.025-.518-.025a14.729,14.729,0,0,0-10.82,4.448,15.975,15.975,0,0,0-1.363,1.562V69.354s.057-1.992.121-2.986h-3.1V97.3h3V79.127a12.6,12.6,0,0,1,12.183-9.812,4.184,4.184,0,0,1,.561.025Z" transform="translate(0.096 -28.681)" fill="url(#linear-gradient)"/>
      <path id="Path_99" data-name="Path 99" d="M480.719,91.3l.387-7.135-6.585,2.332,2.5.717L463.754,105.1l-9.709-12.869h-3.692l11.537,15.293L449.7,122.876h3.717l10.355-13.057,10.316,13.394h3.681l-12.2-15.716,13.824-18.364Z" transform="translate(-290.025 -54.278)" fill="#e87325"/>
    </g>
  </g>
</svg>
