<svg xmlns="http://www.w3.org/2000/svg" xmlns:xlink="http://www.w3.org/1999/xlink" width="404" height="180" viewBox="0 0 404 180">
  <defs>
    <linearGradient id="linear-gradient" x1="-1.092" y1="0.065" x2="0.5" y2="1" gradientUnits="objectBoundingBox">
      <stop offset="0" stop-color="#fdfdfd"/>
      <stop offset="1" stop-color="#f1f1f1"/>
    </linearGradient>
    <filter id="Rectangle_123" x="0" y="0" width="404" height="180" filterUnits="userSpaceOnUse">
      <feOffset dy="3" input="SourceAlpha"/>
      <feGaussianBlur stdDeviation="5" result="blur"/>
      <feFlood flood-opacity="0.161"/>
      <feComposite operator="in" in2="blur"/>
      <feComposite in="SourceGraphic"/>
    </filter>
  </defs>
  <g id="Group_141" data-name="Group 141" transform="translate(-982.5 -6582.59)">
    <g transform="matrix(1, 0, 0, 1, 982.5, 6582.59)" filter="url(#Rectangle_123)">
      <rect id="Rectangle_123-2" data-name="Rectangle 123" width="374" height="150" rx="4" transform="translate(15 12)" fill="url(#linear-gradient)"/>
    </g>
    <path id="XMLID_1775_" d="M67.78,675.048V668a4.136,4.136,0,0,0-4.464-4.464,4.624,4.624,0,0,0-4,2,4.126,4.126,0,0,0-3.766-2,3.787,3.787,0,0,0-3.287,1.643v-1.41H49.8v11.284h2.465v-6.231c0-2,1.054-2.944,2.7-2.944s2.465,1.054,2.465,2.944v6.231h2.465v-6.231c0-2,1.178-2.944,2.7-2.944,1.643,0,2.465,1.054,2.465,2.944v6.231Zm36.563-11.284h-4v-3.41H97.88v3.41H95.648V666H97.88v5.176c0,2.588,1.054,4.108,3.875,4.108a6.627,6.627,0,0,0,3.054-.822l-.712-2.123a3.943,3.943,0,0,1-2.123.589c-1.178,0-1.643-.712-1.643-1.876V666h4v-2.232Zm20.925-.247a3.341,3.341,0,0,0-2.944,1.643v-1.41h-2.465v11.284h2.465V668.68c0-1.876.822-2.944,2.355-2.944a7.567,7.567,0,0,1,1.534.233l.712-2.355a9.763,9.763,0,0,0-1.657-.1ZM93.648,664.7a8.087,8.087,0,0,0-4.588-1.178c-2.821,0-4.7,1.411-4.7,3.643,0,1.876,1.41,2.944,3.875,3.287l1.178.123c1.287.233,2,.589,2,1.178,0,.822-.945,1.41-2.588,1.41a6.5,6.5,0,0,1-3.766-1.178l-1.178,1.876a8.263,8.263,0,0,0,4.82,1.411c3.287,0,5.176-1.534,5.176-3.643,0-2-1.534-3.054-3.875-3.41l-1.178-.123c-1.054-.123-1.876-.356-1.876-1.054,0-.822.822-1.287,2.123-1.287a8.481,8.481,0,0,1,3.533.945l1.041-2Zm65.581-1.178a3.341,3.341,0,0,0-2.944,1.643v-1.41H153.82v11.284h2.465V668.68c0-1.876.822-2.944,2.355-2.944a7.567,7.567,0,0,1,1.534.233l.712-2.328a7.508,7.508,0,0,0-1.657-.123Zm-31.5,5.888a5.647,5.647,0,0,0,6,5.875,5.9,5.9,0,0,0,4-1.287l-1.178-2a4.708,4.708,0,0,1-2.944,1.054,3.337,3.337,0,0,1-3.41-3.643,3.458,3.458,0,0,1,3.41-3.643,4.82,4.82,0,0,1,2.944,1.054l1.178-2a5.836,5.836,0,0,0-4-1.287,5.64,5.64,0,0,0-6,5.875Zm22.8,0v-5.642h-2.465v1.411a4.258,4.258,0,0,0-3.533-1.643,5.88,5.88,0,0,0,0,11.75,3.986,3.986,0,0,0,3.533-1.643v1.41h2.465v-5.642Zm-9.052,0a3.417,3.417,0,1,1,6.82,0,3.417,3.417,0,1,1-6.82,0Zm-29.5-5.888a5.878,5.878,0,0,0,.123,11.75,7.164,7.164,0,0,0,4.588-1.534l-1.178-1.767a5.6,5.6,0,0,1-3.287,1.178,3.178,3.178,0,0,1-3.41-2.7h8.34V669.5c.11-3.629-2.013-5.984-5.176-5.984Zm0,2.123a2.746,2.746,0,0,1,2.821,2.7h-5.875a2.971,2.971,0,0,1,3.054-2.7Zm61.24,3.766V659.3H170.76v5.875a4.258,4.258,0,0,0-3.533-1.643,5.88,5.88,0,0,0,0,11.75,3.986,3.986,0,0,0,3.533-1.643v1.41h2.465v-5.642Zm-9.052,0a3.417,3.417,0,1,1,6.82,0,3.417,3.417,0,1,1-6.82,0Zm-82.521,0v-5.642H79.188v1.411a4.258,4.258,0,0,0-3.533-1.643,5.88,5.88,0,0,0,0,11.75,3.986,3.986,0,0,0,3.533-1.643v1.41h2.465v-5.642Zm-9.161,0a3.417,3.417,0,1,1,6.82,0,3.417,3.417,0,1,1-6.82,0Z" transform="translate(1073.104 6047.442)"/>
    <rect id="rect19" width="37.029" height="66.526" transform="translate(1165.932 6625.509)" fill="#ff5a00"/>
    <path id="XMLID_330_" d="M52.311,42.315a42.434,42.434,0,0,1,16.1-33.263,42.3,42.3,0,1,0-26.1,75.578,42.088,42.088,0,0,0,26.1-9.052A42.229,42.229,0,0,1,52.311,42.315Z" transform="translate(1116.085 6616.457)" fill="#eb001b"/>
    <path id="path22" d="M568.016,42.315A42.274,42.274,0,0,1,499.6,75.578a42.4,42.4,0,0,0,0-66.526,42.274,42.274,0,0,1,68.416,33.263Z" transform="translate(684.9 6616.457)" fill="#f79e1b"/>
  </g>
</svg>
