<svg xmlns="http://www.w3.org/2000/svg" xmlns:xlink="http://www.w3.org/1999/xlink" width="404" height="180" viewBox="0 0 404 180">
  <defs>
    <linearGradient id="linear-gradient" x1="-1.092" y1="0.065" x2="0.5" y2="1" gradientUnits="objectBoundingBox">
      <stop offset="0" stop-color="#fdfdfd"/>
      <stop offset="1" stop-color="#f1f1f1"/>
    </linearGradient>
    <filter id="Rectangle_116" x="0" y="0" width="404" height="180" filterUnits="userSpaceOnUse">
      <feOffset dy="3" input="SourceAlpha"/>
      <feGaussianBlur stdDeviation="5" result="blur"/>
      <feFlood flood-opacity="0.161"/>
      <feComposite operator="in" in2="blur"/>
      <feComposite in="SourceGraphic"/>
    </filter>
  </defs>
  <g id="Group_135" data-name="Group 135" transform="translate(-7.5 -6412.59)">
    <g transform="matrix(1, 0, 0, 1, 7.5, 6412.59)" filter="url(#Rectangle_116)">
      <rect id="Rectangle_116-2" data-name="Rectangle 116" width="374" height="150" rx="4" transform="translate(15 12)" fill="url(#linear-gradient)"/>
    </g>
    <path id="Neteller" d="M267.292,3.576C263.822,1.2,258.571,0,251.687,0H233.661l-6.7,36.382H203.344l1.518-8.254h14.225l1.686-9.271-14.217.02,1.522-8.218h14.653L224.68,0H194.923l-6.362,34.511h-10.92L184.046,0H168.491l-6.362,34.511H151.491L157.9,0H142.356l-6.71,36.382H111.861l1.5-8.254h14.283l1.688-9.218L115.066,18.9l1.514-8.234H131.4L133.334,0H40.606L35.328,28.83,24.818,0H8.679L-.007,47.05H15.406l5.257-29.625,10.2,29.625H86.1l6.716-36.393h8.639L94.739,47.05h145.34l4.214-22.973,6.816,22.973H266.53l-7.064-18.772,1.616-.348a13.827,13.827,0,0,0,8.269-4.858,15.029,15.029,0,0,0,2.915-9.486c0-4.451-1.628-7.727-4.979-10.013ZM72.688,36.382H49.1l1.524-8.254h14.8l1.677-9.3H52.439l1.412-8.168H77.409l-4.726,25.72Zm181.9-15.848c-1.551,1.084-3.8,1.612-6.873,1.612h-3.048L247,9.52h2.242a10.463,10.463,0,0,1,5.7,1.244,4.933,4.933,0,0,1,2.195,4.4,6.183,6.183,0,0,1-2.557,5.372Z" transform="translate(73.37 6476.065)" fill="#83ba3b"/>
  </g>
</svg>
