<svg xmlns="http://www.w3.org/2000/svg" xmlns:xlink="http://www.w3.org/1999/xlink" width="324.696" height="123.554" viewBox="0 0 324.696 123.554">
  <defs>
    <linearGradient id="linear-gradient" x1="1" y1="0.154" x2="0.297" y2="0.803" gradientUnits="objectBoundingBox">
      <stop offset="0" stop-color="#00325a"/>
      <stop offset="1" stop-color="#4076a1"/>
    </linearGradient>
  </defs>
  <path id="Path_39" data-name="Path 39" d="M-160.066-87.531h22.331c.815-7.5,5.542-14.67,16.626-14.67,10.432,0,16.137,5.542,16.137,14.833,0,11.736-9.78,15.485-23.146,15.485h-4.727v18.745h4.727c16.952,0,25.428,4.89,25.428,18.256,0,9.454-5.868,16.626-17.278,16.626-12.225,0-19.071-7.335-19.56-17.6H-161.7C-160.718-10.921-142.951.815-119.479.815c24.939,0,38.631-14.344,38.631-33.741,0-16.137-7.987-25.917-20.049-29.666v-.652c8.639-2.934,17.93-12.062,17.93-26.9,0-17.6-13.04-31.459-37.49-31.459C-143.277-121.6-158.925-109.536-160.066-87.531Zm97.311,26.569c0,34.719,10.432,60.636,44.01,60.636s44.01-25.917,44.01-60.636c0-34.393-10.432-60.147-44.01-60.147S-62.755-95.355-62.755-60.962Zm65.526,0c0,21.19-2.282,39.446-21.516,39.446S-40.261-39.772-40.261-60.962c0-20.375,2.282-38.957,21.516-38.957S2.771-81.337,2.771-60.962ZM39.935-89.65c0,17.115,11.084,26.569,25.917,26.569S91.769-72.535,91.769-89.65c0-16.952-11.084-26.406-25.917-26.406S39.935-106.6,39.935-89.65Zm25.754-12.714c5.705,0,9.291,3.749,9.291,12.714s-3.586,12.877-9.291,12.877c-5.542,0-8.965-3.912-8.965-12.877S60.147-102.364,65.689-102.364ZM58.354,0H80.522l64.059-114.1H122.25Zm53.138-24.613c0,17.278,11.084,26.569,25.917,26.569C152.079,1.956,163-7.335,163-24.613c0-17.115-10.921-26.406-25.591-26.406C122.576-51.019,111.492-41.728,111.492-24.613Zm25.754-12.714c5.542,0,9.128,3.749,9.128,12.714,0,9.128-3.586,12.877-9.128,12.877-5.705,0-9.291-3.749-9.291-12.877C127.955-33.578,131.541-37.327,137.246-37.327Z" transform="translate(161.696 121.598)" fill="url(#linear-gradient)"/>
</svg>
