<svg xmlns="http://www.w3.org/2000/svg" xmlns:xlink="http://www.w3.org/1999/xlink" width="404" height="180" viewBox="0 0 404 180">
  <defs>
    <linearGradient id="linear-gradient" x1="-1.092" y1="0.065" x2="0.5" y2="1" gradientUnits="objectBoundingBox">
      <stop offset="0" stop-color="#fdfdfd"/>
      <stop offset="1" stop-color="#f1f1f1"/>
    </linearGradient>
    <filter id="Rectangle_117" x="0" y="0" width="404" height="180" filterUnits="userSpaceOnUse">
      <feOffset dy="3" input="SourceAlpha"/>
      <feGaussianBlur stdDeviation="5" result="blur"/>
      <feFlood flood-opacity="0.161"/>
      <feComposite operator="in" in2="blur"/>
      <feComposite in="SourceGraphic"/>
    </filter>
    <linearGradient id="linear-gradient-2" x1="0.27" x2="0.793" y2="1" gradientUnits="objectBoundingBox">
      <stop offset="0" stop-color="#6b195f"/>
      <stop offset="1" stop-color="#4c255b"/>
    </linearGradient>
  </defs>
  <g id="Group_136" data-name="Group 136" transform="translate(-401.5 -6412.59)">
    <g transform="matrix(1, 0, 0, 1, 401.5, 6412.59)" filter="url(#Rectangle_117)">
      <rect id="Rectangle_117-2" data-name="Rectangle 117" width="374" height="150" rx="4" transform="translate(15 12)" fill="url(#linear-gradient)"/>
    </g>
    <path id="Fill-1" d="M125.328,14.862a7.159,7.159,0,1,0-7.155-7.156,7.159,7.159,0,0,0,7.155,7.156ZM70.48,18.726a50.648,50.648,0,0,1-8.274,14.191V3.8L47.218,6.765V59.539H62.206V43.226c4.341,6.511,6.485,16.313,6.485,16.313H86.643C84.867,52.156,77.1,38.544,77.1,38.544A65.767,65.767,0,0,0,87.62,18.726Zm39.4-.551c-13.424.431-20.239,6.454-20.239,18.426V59.539h14.646v-18.7c0-7.169.939-10.242,9.446-10.535V18.386a20.313,20.313,0,0,0-3.852-.21Zm-87.8,6.362c-1.836-.121-6.086-.4-6.086-4.222C16,15.7,22.115,15.7,24.41,15.7A50.606,50.606,0,0,1,37.4,18.008s2.082.734,3.854,1.486l.165.045V6.893L41.2,6.826C36.792,5.285,31.67,3.8,22.174,3.8,5.8,3.8,0,13.341,0,21.512c0,4.71,2.019,15.8,20.77,17.075,1.59.1,5.808.341,5.808,4.295,0,3.265-3.454,5.19-9.263,5.19A45.585,45.585,0,0,1,1.023,44.908V57.931a75.982,75.982,0,0,0,19.363,2.207c16.009,0,23.179-9.024,23.179-17.969,0-10.141-8.023-16.731-21.484-17.632Zm95.987,35H132.6V18.773H118.068ZM159.949,6.4V59.539h14.529V3.8L159.949,6.4Zm-21.2,0,14.516-2.6V59.539H138.749V6.4Z" transform="translate(516.261 6469.249)" fill="url(#linear-gradient-2)"/>
  </g>
</svg>
