<svg xmlns="http://www.w3.org/2000/svg" xmlns:xlink="http://www.w3.org/1999/xlink" width="484.218" height="60.912" viewBox="0 0 484.218 60.912">
  <defs>
    <linearGradient id="linear-gradient" x1="0.929" y1="0.368" x2="0.028" y2="0.85" gradientUnits="objectBoundingBox">
      <stop offset="0" stop-color="#00325a"/>
      <stop offset="1" stop-color="#4076a1"/>
    </linearGradient>
  </defs>
  <path id="Path_41" data-name="Path 41" d="M-242.838-21.627c0,14.9,10.206,22.194,22.6,22.194s23.085-7.29,23.085-22.194V-56.538h-11.421v34.992c0,7.776-4.212,11.826-11.5,11.826-7.209,0-11.421-4.05-11.421-11.826V-56.538h-11.34ZM-186.219,0h11.34V-59.94h-11.34Zm24.3-13.932C-161.919-3.645-156.168,0-147.582,0h7.128V-9.558h-5.265c-3.564,0-4.779-1.3-4.779-4.293V-35.559h10.044v-9.315H-150.5v-11.1h-11.421v11.1h-5.346v9.315h5.346Zm40.986-8.424c0-8.667,4.05-11.259,10.773-11.259h3V-45.522a15.563,15.563,0,0,0-13.77,7.614v-6.966h-11.34V0h11.34Zm18.468-.243c0,14.013,9.072,23.328,20.412,23.328,7.128,0,12.231-3.4,14.9-7.29V0h11.421V-44.874H-67.149v6.4C-69.822-42.2-74.763-45.6-81.972-45.6-93.393-45.6-102.465-36.612-102.465-22.6Zm35.316.162c0,8.505-5.67,13.2-11.907,13.2-6.075,0-11.826-4.86-11.826-13.365S-85.131-35.64-79.056-35.64C-72.819-35.64-67.149-30.942-67.149-22.437Zm41.8-34.1V0H4.617V-8.991h-18.63V-56.538Zm80.514,34.1c0-14.175-10.125-23.166-23.085-23.166S8.991-36.612,8.991-22.437C8.991-8.343,18.792.729,31.752.729,44.793.729,55.161-8.343,55.161-22.437Zm-34.668,0c0-8.991,5.427-13.284,11.421-13.284S43.5-31.428,43.5-22.437c0,8.91-5.751,13.284-11.745,13.284C25.677-9.153,20.493-13.527,20.493-22.437ZM71.685,0H84l8.181-31.347L100.359,0H112.59l13.122-44.874H114.858l-7.938,34.1L98.5-44.874H86.508L77.922-10.692,69.984-44.874h-11.5ZM149.85-30.294c0,17.253,5.184,30.132,21.87,30.132s21.87-12.879,21.87-30.132c0-17.091-5.184-29.889-21.87-29.889S149.85-47.385,149.85-30.294Zm32.562,0c0,10.53-1.134,19.6-10.692,19.6s-10.692-9.072-10.692-19.6c0-10.125,1.134-19.359,10.692-19.359S182.412-40.419,182.412-30.294ZM215.379-6.075a6.628,6.628,0,0,0-6.885-6.642c-4.131,0-7.047,2.916-7.047,6.642S204.363.567,208.494.567A6.628,6.628,0,0,0,215.379-6.075ZM229.716,0H241.38V-59.049H221.859V-48.6h7.857Z" transform="translate(242.838 60.183)" fill="url(#linear-gradient)"/>
</svg>
