<svg xmlns="http://www.w3.org/2000/svg" xmlns:xlink="http://www.w3.org/1999/xlink" width="404" height="180" viewBox="0 0 404 180">
  <defs>
    <linearGradient id="linear-gradient" x1="-1.092" y1="0.065" x2="0.5" y2="1" gradientUnits="objectBoundingBox">
      <stop offset="0" stop-color="#fdfdfd"/>
      <stop offset="1" stop-color="#f1f1f1"/>
    </linearGradient>
    <filter id="Rectangle_122" x="0" y="0" width="404" height="180" filterUnits="userSpaceOnUse">
      <feOffset dy="3" input="SourceAlpha"/>
      <feGaussianBlur stdDeviation="5" result="blur"/>
      <feFlood flood-opacity="0.161"/>
      <feComposite operator="in" in2="blur"/>
      <feComposite in="SourceGraphic"/>
    </filter>
  </defs>
  <g id="Group_139" data-name="Group 139" transform="translate(-1583.5 -6412.59)">
    <g transform="matrix(1, 0, 0, 1, 1583.5, 6412.59)" filter="url(#Rectangle_122)">
      <rect id="Rectangle_122-2" data-name="Rectangle 122" width="374" height="150" rx="4" transform="translate(15 12)" fill="url(#linear-gradient)"/>
    </g>
    <path id="polygon9" d="M452,182.235h-18.49l11.565-71.508H463.56Z" transform="translate(1309.144 6353.225)" fill="#00579f"/>
    <path id="path11" d="M620.643,108.092a45.566,45.566,0,0,0-16.584-3.044c-18.259,0-31.117,9.737-31.2,23.657-.152,10.271,9.206,15.975,16.2,19.4,7.153,3.5,9.585,5.783,9.585,8.9-.073,4.791-5.78,7-11.1,7-7.382,0-11.337-1.138-17.348-3.8l-2.435-1.143-2.587,16.052c4.337,1.976,12.326,3.729,20.621,3.806,19.4,0,32.031-9.586,32.181-24.421.074-8.14-4.867-14.378-15.52-19.474-6.467-3.272-10.427-5.478-10.427-8.826.076-3.043,3.35-6.161,10.65-6.161a31.414,31.414,0,0,1,13.773,2.738l1.672.759,2.515-15.441h0Z" transform="translate(1207.524 6357.607)" fill="#00579f"/>
    <path id="path13" d="M819.128,156.9c1.523-4.108,7.382-20.007,7.382-20.007-.077.153,1.52-4.184,2.433-6.846l1.292,6.162s3.5,17.117,4.262,20.692Zm22.823-46.175h-14.3c-4.41,0-7.761,1.292-9.664,5.933l-27.464,65.574h19.4s3.194-8.826,3.881-10.727h23.739c.531,2.511,2.206,10.727,2.206,10.727h17.12l-14.917-71.507Z" transform="translate(1033.612 6353.225)" fill="#00579f"/>
    <path id="path15" d="M211.485,110.727l-18.107,48.761L191.4,149.6c-3.348-11.411-13.847-23.809-25.563-29.974l16.586,62.533h19.552l29.063-71.432H211.485Z" transform="translate(1515.722 6353.225)" fill="#00579f"/>
    <path id="path17" d="M111.218,110.727H81.47l-.3,1.445c23.205,5.934,38.574,20.238,44.888,37.43l-6.467-32.864c-1.065-4.567-4.337-5.86-8.369-6.011Z" transform="translate(1581.067 6353.225)" fill="#faa61a"/>
  </g>
</svg>
