<svg xmlns="http://www.w3.org/2000/svg" xmlns:xlink="http://www.w3.org/1999/xlink" width="404" height="180" viewBox="0 0 404 180">
  <defs>
    <linearGradient id="linear-gradient" x1="-1.092" y1="0.065" x2="0.5" y2="1" gradientUnits="objectBoundingBox">
      <stop offset="0" stop-color="#fdfdfd"/>
      <stop offset="1" stop-color="#f1f1f1"/>
    </linearGradient>
    <filter id="Rectangle_124" x="0" y="0" width="404" height="180" filterUnits="userSpaceOnUse">
      <feOffset dy="3" input="SourceAlpha"/>
      <feGaussianBlur stdDeviation="5" result="blur"/>
      <feFlood flood-opacity="0.161"/>
      <feComposite operator="in" in2="blur"/>
      <feComposite in="SourceGraphic"/>
    </filter>
    <linearGradient id="linear-gradient-2" y1="0.5" x2="1" y2="0.5" gradientUnits="objectBoundingBox">
      <stop offset="0" stop-color="#41e700" stop-opacity="0"/>
      <stop offset="0.736" stop-color="#3acd00"/>
      <stop offset="0.781" stop-color="#36be00"/>
      <stop offset="0.926" stop-color="#299100"/>
      <stop offset="1" stop-color="#248000"/>
    </linearGradient>
  </defs>
  <g id="Group_140" data-name="Group 140" transform="translate(-1376.5 -6582.59)">
    <g transform="matrix(1, 0, 0, 1, 1376.5, 6582.59)" filter="url(#Rectangle_124)">
      <rect id="Rectangle_124-2" data-name="Rectangle 124" width="374" height="150" rx="4" transform="translate(15 12)" fill="url(#linear-gradient)"/>
    </g>
    <path id="Path_54" data-name="Path 54" d="M53.247,304.252V282.279H46.8v-6.8H67.535v6.8H61.089v21.973Zm18.121,0V275.478h8.2a34.116,34.116,0,0,1,6.712.443,8.563,8.563,0,0,1,3.272,1.483,7.75,7.75,0,0,1,2.388,3.007,9.585,9.585,0,0,1,.836,4.029,8.55,8.55,0,0,1-1.641,5.435,8.006,8.006,0,0,1-4.786,2.782l7.842,11.6H85.322l-6.6-11.262v11.262h-7.35Zm7.351-15.173h1.454a6.286,6.286,0,0,0,3.7-.865,3.15,3.15,0,0,0,1.17-2.713,3.811,3.811,0,0,0-1.091-3.075,5.743,5.743,0,0,0-3.666-.914H78.718Z" transform="translate(1429.37 6402.883)" fill="#00afd8"/>
    <path id="Path_55" data-name="Path 55" d="M143.874,303.519l9.925-28.774h9.827l9.945,28.774h-7.8l-1.454-5.149H153.17l-1.493,5.149Zm10.987-10.751h7.8l-2.928-9.493q-.137-.431-.373-1.4t-.609-2.476q-.244,1.014-.5,2.025-.236.927-.5,1.847Zm21.462,10.751V274.745h7.566l10.868,14.8a20.26,20.26,0,0,1,1.032,1.818q.717,1.366,1.583,3.253-.214-1.587-.344-3.184-.1-1.235-.108-2.476v-14.21h7.528v28.774H196.92l-10.868-14.858A16.36,16.36,0,0,1,185,286.842q-.717-1.366-1.563-3.213.236,1.809.344,3.2.1,1.236.108,2.476v14.21Zm35.574-9.3a14.233,14.233,0,0,0,3.449,2.968,6.725,6.725,0,0,0,3.391.983,3.893,3.893,0,0,0,2.584-.846,2.67,2.67,0,0,0,1.012-2.142,2.8,2.8,0,0,0-.874-2.21,11.088,11.088,0,0,0-3.961-1.6q-4.225-1.139-5.975-2.968a6.946,6.946,0,0,1-1.749-5.012,8.833,8.833,0,0,1,2.762-6.731,10.016,10.016,0,0,1,7.164-2.6,15.651,15.651,0,0,1,4.51.639,14.6,14.6,0,0,1,4.039,1.936l-2.457,5.641a10.333,10.333,0,0,0-2.741-1.72,7.267,7.267,0,0,0-2.781-.579,3.678,3.678,0,0,0-2.3.678,2.1,2.1,0,0,0-.884,1.739,2.139,2.139,0,0,0,.776,1.73,8.431,8.431,0,0,0,3,1.239l.353.1q4.8,1.3,6.309,2.85a7.04,7.04,0,0,1,1.552,2.545,9.732,9.732,0,0,1,.531,3.292A9.548,9.548,0,0,1,226.6,301.5a11.345,11.345,0,0,1-8.018,2.78,14.178,14.178,0,0,1-5.474-1.022,15.5,15.5,0,0,1-4.747-3.2Zm22.111,9.3V274.745h17.63v6.309h-9.984v4.992h9.415v6.172h-9.415v11.3Zm21.895,0V274.745h17.63v6.309h-9.984v4.992h9.415v6.172h-9.415v4.855h9.984v6.446H255.9Zm22.818,0V274.745h8.2a34.116,34.116,0,0,1,6.712.443,8.568,8.568,0,0,1,3.273,1.483,7.76,7.76,0,0,1,2.388,3.007,9.586,9.586,0,0,1,.836,4.029,8.553,8.553,0,0,1-1.641,5.435,8,8,0,0,1-4.786,2.782l7.841,11.6h-8.864l-6.6-11.262v11.262h-7.351Zm7.351-15.173h1.455a6.281,6.281,0,0,0,3.7-.865,3.15,3.15,0,0,0,1.17-2.713,3.813,3.813,0,0,0-1.091-3.075,5.743,5.743,0,0,0-3.665-.914h-1.572Z" transform="translate(1379.289 6403.616)" fill="#00afd8"/>
    <path id="Path_56" data-name="Path 56" d="M197.1,178.847l5.223,19.759q.37,1.335.682,2.782t.653,3.321q.426-2.215.724-3.648t.582-2.455l4.883-19.759h11.442L209.531,220.41h-10.5l-5.139-17.744q-.285-.937-.937-3.662-.285-1.22-.454-1.9-.142.6-.4,1.675-.653,2.754-.993,3.889l-5.053,17.744H175.521L163.8,178.847h11.441l4.769,19.872q.341,1.534.667,3.066t.61,3.151q.268-1.251.554-2.5.432-1.863.894-3.719l5.224-19.872H197.1Zm28.389,41.562V178.847h11.441V220.41Zm20.582,0V178.847h11.838a49.356,49.356,0,0,1,9.695.639,12.385,12.385,0,0,1,4.727,2.143,11.212,11.212,0,0,1,3.449,4.344,13.834,13.834,0,0,1,1.206,5.82,12.352,12.352,0,0,1-2.37,7.85,11.556,11.556,0,0,1-6.912,4.017l11.327,16.75h-12.8l-9.539-16.267V220.41H246.068Zm10.618-21.917h2.1q3.663,0,5.352-1.249a4.55,4.55,0,0,0,1.689-3.918q0-3.122-1.576-4.443t-5.3-1.32h-2.27Zm26.657,21.917V178.847h25.465v9.113H294.387v7.211h13.6v8.914h-13.6V211.1h14.422v9.312Z" transform="translate(1369.012 6452.735)" fill="#006e90"/>
    <path id="Path_57" data-name="Path 57" d="M47.507,178.22H99.361v8.23H47.507Z" transform="translate(1429.005 6453.059)" fill="url(#linear-gradient-2)"/>
    <path id="Path_58" data-name="Path 58" d="M47.507,211.218H99.361v8.23H47.507Z" transform="translate(1429.005 6436.035)" fill="url(#linear-gradient-2)"/>
    <path id="Path_59" data-name="Path 59" d="M47.507,247.217H99.361v8.23H47.507Z" transform="translate(1429.005 6417.463)" fill="url(#linear-gradient-2)"/>
  </g>
</svg>
